<?xml version="1.0" encoding="UTF-8" standalone="no"?>
<svg xmlns:ffdec="https://www.free-decompiler.com/flash" xmlns:xlink="http://www.w3.org/1999/xlink" ffdec:objectType="shape" height="31.3px" width="23.35px" xmlns="http://www.w3.org/2000/svg">
  <g transform="matrix(1.0, 0.0, 0.0, 1.0, 11.6, 16.7)">
    <path d="M-1.15 -11.1 L-1.55 -11.05 Q-3.4 -8.85 -5.65 -4.95 -8.6 0.2 -8.6 2.8 -8.6 8.55 -3.1 11.25 -1.95 11.8 -1.0 10.7 -0.1 9.65 -1.0 9.1 -3.05 8.1 -4.35 6.5 -5.75 4.75 -5.75 2.8 -5.75 0.85 -4.3 -3.45 -2.95 -7.45 -1.2 -10.8 -1.0 -11.1 -1.15 -11.1 M0.05 -16.05 L5.6 -8.85 Q11.1 -0.9 11.1 2.9 11.1 7.5 7.85 10.7 4.65 13.95 0.05 13.95 -4.5 13.95 -7.7 10.7 -10.95 7.5 -10.95 2.9 -10.95 -0.9 -5.4 -8.85 L0.05 -16.05" fill="#ffffff" fill-rule="evenodd" stroke="none"/>
    <path d="M0.05 -16.05 L-5.4 -8.85 Q-10.95 -0.9 -10.95 2.9 -10.95 7.5 -7.7 10.7 -4.5 13.95 0.05 13.95 4.65 13.95 7.85 10.7 11.1 7.5 11.1 2.9 11.1 -0.9 5.6 -8.85 L0.05 -16.05 M-1.15 -11.1 Q-1.0 -11.1 -1.2 -10.8 -2.95 -7.45 -4.3 -3.45 -5.75 0.85 -5.75 2.8 -5.75 4.75 -4.35 6.5 -3.05 8.1 -1.0 9.1 -0.1 9.65 -1.0 10.7 -1.95 11.8 -3.1 11.25 -8.6 8.55 -8.6 2.8 -8.6 0.2 -5.65 -4.95 -3.4 -8.85 -1.55 -11.05 L-1.15 -11.1 Z" fill="none" stroke="#8c8c8c" stroke-linecap="square" stroke-linejoin="round" stroke-opacity="0.49803922" stroke-width="1.0"/>
  </g>
</svg>
