<?xml version="1.0" encoding="UTF-8" standalone="no"?>
<svg xmlns:ffdec="https://www.free-decompiler.com/flash" xmlns:xlink="http://www.w3.org/1999/xlink" ffdec:objectType="shape" height="251.15px" width="246.55px" xmlns="http://www.w3.org/2000/svg">
  <g transform="matrix(1.0, 0.0, 0.0, 1.0, -565.7, -146.0)">
    <path d="M811.45 339.3 L806.4 339.15 M811.4 308.6 L806.55 308.45 M803.45 320.7 L811.4 320.8 M811.45 314.7 L806.4 314.65 M811.45 327.0 L806.4 326.85 M811.4 333.1 L806.55 332.95 M811.4 296.3 L803.1 296.15 M811.45 290.2 L806.3 290.1 M810.85 283.95 L806.45 283.95 M811.45 302.5 L806.4 302.35 M810.75 234.85 L805.9 234.7 M810.8 241.05 L805.75 240.9 M810.9 253.35 L805.75 253.15 M810.9 265.55 L806.3 265.55 M810.9 277.85 L806.3 277.85 M810.85 259.45 L806.45 259.45 M803.1 271.65 L810.85 271.65 M803.05 247.15 L810.85 247.15 M810.2 185.6 L805.8 185.6 M810.8 191.95 L805.65 191.8 M810.8 204.25 L805.75 204.1 M810.8 228.75 L805.75 228.6 M810.8 216.45 L805.75 216.4 M810.75 210.35 L805.9 210.2 M803.5 222.4 L810.75 222.55 M810.75 198.05 L803.35 197.9 M810.25 179.5 L805.65 179.5 M810.25 167.3 L805.65 167.3 M803.5 173.4 L810.2 173.4 M810.2 161.1 L805.8 161.1 M810.25 155.0 L805.65 155.0 M811.75 146.5 L811.75 351.6 811.75 363.8 811.75 376.1 811.75 388.35 811.75 396.65 669.15 396.65 663.05 396.65 656.85 396.65 650.75 396.65 644.65 396.65 638.55 396.65 632.35 396.65 626.25 396.65 620.05 396.65 613.95 396.65 607.75 396.65 601.65 396.65 595.55 396.65 589.45 396.65 583.25 396.65 577.15 396.65 571.0 396.65 566.2 396.65 M718.3 395.9 L718.45 390.85 M706.0 396.0 L706.2 390.85 M693.8 396.0 L693.8 391.4 M681.5 396.0 L681.5 391.4 M699.9 395.95 L699.9 391.55 M687.7 388.2 L687.7 395.95 M712.2 388.15 L712.2 395.95 M724.5 395.85 L724.65 391.0 M657.0 391.5 L656.85 396.65 M650.9 391.65 L650.75 396.65 M675.4 395.95 L675.4 391.55 M663.05 396.65 L663.2 388.2 M669.25 391.4 L669.15 396.65 M571.0 396.65 L571.0 392.05 M577.15 392.2 L577.15 396.65 M583.25 396.65 L583.25 392.05 M589.45 396.65 L589.4 389.85 M595.55 392.05 L595.55 396.65 M601.65 396.65 L601.65 392.2 M613.95 396.65 L614.1 388.3 M607.95 391.5 L607.75 396.65 M620.05 396.65 L620.2 391.5 M626.25 396.65 L626.4 391.65 M632.35 396.65 L632.5 391.5 M638.65 388.55 L638.55 396.65 M644.65 396.65 L644.7 391.5 M773.75 395.3 L773.75 390.9 M767.4 395.9 L767.55 390.75 M761.3 395.85 L761.45 388.45 M779.85 395.35 L779.85 390.75 M792.05 395.35 L792.05 390.75 M785.95 388.6 L785.95 395.3 M798.25 395.3 L798.25 390.9 M804.35 395.35 L804.35 390.75 M755.1 395.9 L755.25 390.85 M730.6 395.9 L730.75 390.85 M742.9 395.9 L742.95 390.85 M749.0 395.85 L749.15 391.0 M736.95 388.6 L736.8 395.85 M811.75 388.35 L806.95 388.35 M804.75 369.95 L811.45 369.9 M811.5 382.2 L807.1 382.2 M811.75 376.1 L806.95 376.1 M806.95 363.8 L811.75 363.8 M811.5 357.7 L807.1 357.7 M811.5 345.4 L803.2 345.25 M811.75 351.6 L806.4 351.4" fill="none" stroke="#ffffff" stroke-linecap="round" stroke-linejoin="round" stroke-width="1.0"/>
  </g>
</svg>
