<?xml version="1.0" encoding="UTF-8" standalone="no"?>
<svg xmlns:ffdec="https://www.free-decompiler.com/flash" xmlns:xlink="http://www.w3.org/1999/xlink" ffdec:objectType="frame" height="21.3px" width="30.0px" xmlns="http://www.w3.org/2000/svg">
  <g transform="matrix(1.0, 0.0, 0.0, 1.0, 15.0, 10.65)">
    <use ffdec:characterId="190" height="21.3" transform="matrix(1.0, 0.0, 0.0, 1.0, -15.0, -10.65)" width="30.0" xlink:href="#shape0"/>
  </g>
  <defs>
    <g id="shape0" transform="matrix(1.0, 0.0, 0.0, 1.0, 15.0, 10.65)">
      <path d="M11.1 -6.15 L11.3 -5.8 12.1 -3.65 12.4 -1.45 12.4 1.2 Q12.4 2.15 12.9 3.3 13.45 4.4 14.15 5.0 L14.3 5.15 Q15.05 5.75 15.0 6.6 14.95 7.45 14.15 8.0 L12.35 9.3 Q11.6 9.85 10.35 10.3 L8.2 10.65 4.1 10.65 2.0 10.15 Q0.9 9.65 0.25 8.95 L-1.8 6.75 Q-2.45 6.05 -3.55 5.6 -4.7 5.1 -5.65 5.1 L-10.7 5.1 -12.75 4.9 -14.5 4.4 Q-15.1 4.1 -14.95 3.55 L-13.95 2.55 -13.9 2.55 -12.35 1.1 Q-11.55 0.15 -11.3 -0.75 L-10.15 -4.95 -9.15 -6.9 -7.7 -8.5 -6.7 -9.25 Q-5.95 -9.85 -4.7 -10.25 L-2.55 -10.65 3.95 -10.65 6.15 -10.3 Q7.4 -9.9 8.15 -9.4 L9.75 -7.95 11.1 -6.15" fill="#ffffff" fill-rule="evenodd" stroke="none"/>
    </g>
  </defs>
</svg>
