<?xml version="1.0" encoding="UTF-8" standalone="no"?>
<svg xmlns:ffdec="https://www.free-decompiler.com/flash" xmlns:xlink="http://www.w3.org/1999/xlink" ffdec:objectType="frame" height="11.8px" width="11.75px" xmlns="http://www.w3.org/2000/svg">
  <g transform="matrix(1.0, 0.0, 0.0, 1.0, 5.85, 5.9)">
    <use ffdec:characterId="11" height="11.8" transform="matrix(1.0, 0.0, 0.0, 1.0, -5.85, -5.9)" width="11.75" xlink:href="#shape0"/>
  </g>
  <defs>
    <g id="shape0" transform="matrix(1.0, 0.0, 0.0, 1.0, 5.85, 5.9)">
      <path d="M1.9 -4.8 L2.2 -4.7 2.3 -4.4 2.2 -4.2 0.4 -2.4 0.4 -0.9 1.55 -2.0 1.8 -2.1 2.1 -2.0 2.2 -1.8 2.1 -1.5 0.95 -0.35 2.4 -0.35 4.15 -2.15 4.45 -2.3 4.7 -2.15 4.8 -1.9 4.7 -1.65 3.45 -0.35 5.5 -0.35 5.8 -0.25 5.9 0.0 5.8 0.3 5.5 0.4 3.5 0.4 4.7 1.6 4.8 1.85 4.7 2.15 4.45 2.25 4.15 2.15 2.4 0.4 0.95 0.4 2.1 1.5 2.2 1.75 2.1 2.05 1.8 2.15 1.55 2.05 0.4 0.9 0.4 2.35 2.2 4.1 2.3 4.35 2.2 4.65 1.9 4.75 1.65 4.65 0.4 3.4 0.4 5.5 0.3 5.8 0.0 5.9 -0.2 5.8 -0.35 5.5 -0.35 3.4 -1.55 4.65 -1.85 4.75 -2.1 4.65 -2.25 4.35 -2.1 4.1 -0.35 2.35 -0.35 0.9 -1.45 2.05 -1.75 2.15 -2.0 2.05 -2.1 1.75 -2.0 1.5 -0.85 0.4 -2.35 0.4 -4.15 2.15 -4.35 2.25 -4.65 2.15 -4.75 1.85 -4.65 1.6 -3.45 0.4 -5.5 0.4 -5.7 0.3 -5.85 0.0 -5.7 -0.25 -5.5 -0.35 -3.35 -0.35 -4.65 -1.65 -4.75 -1.9 -4.65 -2.15 -4.35 -2.3 -4.15 -2.15 -2.35 -0.35 -0.85 -0.35 -2.0 -1.5 -2.1 -1.8 -2.0 -2.0 -1.75 -2.1 -1.45 -2.0 -0.35 -0.9 -0.35 -2.4 -2.1 -4.2 -2.25 -4.4 -2.1 -4.7 -1.85 -4.8 -1.55 -4.7 -0.35 -3.45 -0.35 -5.5 -0.2 -5.75 0.0 -5.9 0.3 -5.75 0.4 -5.5 0.4 -3.45 1.65 -4.7 1.9 -4.8" fill="#ffffff" fill-rule="evenodd" stroke="none"/>
    </g>
  </defs>
</svg>
