<?xml version="1.0" encoding="UTF-8" standalone="no"?>
<!DOCTYPE svg PUBLIC "-//W3C//DTD SVG 1.1//EN" "http://www.w3.org/Graphics/SVG/1.1/DTD/svg11.dtd">
<svg width="100%" height="100%" viewBox="0 0 30 30" version="1.1" xmlns="http://www.w3.org/2000/svg"
  xmlns:xlink="http://www.w3.org/1999/xlink" xml:space="preserve"
  xmlns:serif="http://www.serif.com/"
  style="fill-rule:evenodd;clip-rule:evenodd;stroke-linejoin:round;stroke-miterlimit:2;"><g><g id="shape0"><path d="M21.05,8.85c-1.433,-1.433 -3.167,-2.25 -5.2,-2.45l-0,2.2l-0.25,0.65l-0.6,0.2l-0.65,-0.2l-0.25,-0.65l-0,-2.2c-2.033,0.2 -3.783,1.017 -5.25,2.45c-1.433,1.467 -2.25,3.217 -2.45,5.25l2,0l0.65,0.25l0.25,0.65l-0.25,0.6l-0.65,0.25l-2,0c0.2,2.033 1.017,3.783 2.45,5.25c1.467,1.433 3.217,2.25 5.25,2.45l-0,-2.2l0.25,-0.6c0.167,-0.2 0.383,-0.3 0.65,-0.3c0.233,0 0.433,0.1 0.6,0.3l0.25,0.6l-0,2.2c2.033,-0.2 3.767,-1.017 5.2,-2.45c1.467,-1.467 2.3,-3.217 2.5,-5.25l-2.2,-0l-0.6,-0.25c-0.2,-0.167 -0.3,-0.367 -0.3,-0.6c0,-0.267 0.1,-0.483 0.3,-0.65l0.6,-0.25l2.2,-0c-0.2,-2.033 -1.033,-3.783 -2.5,-5.25m-5.45,-8.6l0.25,0.6l-0,3.75c2.533,0.233 4.683,1.25 6.45,3.05c1.8,1.767 2.8,3.917 3,6.45l3.8,-0l0.6,0.25l0.3,0.65l-0.3,0.6l-0.6,0.25l-3.8,-0c-0.2,2.533 -1.2,4.683 -3,6.45c-1.767,1.8 -3.917,2.8 -6.45,3l-0,3.8l-0.25,0.6l-0.6,0.3c-0.267,-0 -0.483,-0.1 -0.65,-0.3l-0.25,-0.6l-0,-3.8c-2.533,-0.2 -4.7,-1.2 -6.5,-3c-1.767,-1.767 -2.767,-3.917 -3,-6.45l-3.75,-0l-0.6,-0.25l-0.25,-0.6l0.25,-0.65l0.6,-0.25l3.75,-0c0.233,-2.533 1.233,-4.683 3,-6.45c1.8,-1.8 3.967,-2.817 6.5,-3.05l-0,-3.75l0.25,-0.6l0.65,-0.25l0.6,0.25" style="fill:#fff;"/></g></g></svg>