<?xml version="1.0" encoding="UTF-8" standalone="no"?><!DOCTYPE svg PUBLIC "-//W3C//DTD SVG 1.1//EN" "http://www.w3.org/Graphics/SVG/1.1/DTD/svg11.dtd"><svg width="100%" height="100%" viewBox="0 0 15 18" version="1.1" xmlns="http://www.w3.org/2000/svg" xmlns:xlink="http://www.w3.org/1999/xlink" xml:space="preserve" xmlns:serif="http://www.serif.com/" style="fill-rule:evenodd;clip-rule:evenodd;stroke-linejoin:round;stroke-miterlimit:2;"><g><g id="shape0"><path d="M1.4,7.7l5.15,0l-0,-6.35l-5.15,0l0,6.35m11.65,4.25l0,-2.95l-5.1,0l0,7.3c1.267,-0.533 2.333,-1.167 3.2,-1.9c1.167,-0.8 1.8,-1.617 1.9,-2.45m1.05,-11.55c0.267,0.133 0.4,0.383 0.4,0.75l-0,10.75l-0.1,0.3c-0.2,1.367 -1.283,2.683 -3.25,3.95c-1.067,0.733 -2.183,1.317 -3.35,1.75l-0.55,0.1l-0.45,-0.1l-3.45,-1.75c-1.967,-1.267 -3.083,-2.583 -3.35,-3.95l-0,-11.05c-0,-0.367 0.133,-0.617 0.4,-0.75c0.2,-0.267 0.5,-0.4 0.9,-0.4l11.95,0c0.3,0 0.583,0.133 0.85,0.4" style="fill:#fff;"/></g></g></svg>