<?xml version="1.0" encoding="UTF-8" standalone="no"?>
<svg xmlns:ffdec="https://www.free-decompiler.com/flash" xmlns:xlink="http://www.w3.org/1999/xlink" ffdec:objectType="frame" height="11.0px" width="11.8px" xmlns="http://www.w3.org/2000/svg">
  <g transform="matrix(1.0, 0.0, 0.0, 1.0, 5.9, 5.05)">
    <use ffdec:characterId="13" height="11.0" transform="matrix(1.0, 0.0, 0.0, 1.0, -5.9, -5.05)" width="11.8" xlink:href="#shape0"/>
  </g>
  <defs>
    <g id="shape0" transform="matrix(1.0, 0.0, 0.0, 1.0, 5.9, 5.05)">
      <path d="M0.0 1.3 L0.6 1.15 2.95 5.15 Q1.55 5.95 -0.05 5.95 -1.6 5.95 -2.95 5.15 L-0.65 1.15 0.0 1.3 M-2.95 -5.05 L-0.65 -1.0 -1.1 -0.6 -1.25 0.05 -5.9 0.05 Q-5.9 -1.5 -5.15 -2.85 -4.35 -4.25 -2.95 -5.05 M0.0 -0.7 L0.5 -0.45 0.75 0.05 0.5 0.6 Q0.3 0.8 0.0 0.8 -0.35 0.8 -0.55 0.6 L-0.75 0.05 -0.55 -0.45 0.0 -0.7 M2.95 -5.05 Q4.3 -4.25 5.1 -2.9 5.9 -1.5 5.9 0.05 L1.25 0.05 1.05 -0.6 0.6 -1.0 2.95 -5.05" fill="#ffffff" fill-rule="evenodd" stroke="none"/>
    </g>
  </defs>
</svg>
