<?xml version="1.0" encoding="UTF-8" standalone="no"?>
<svg xmlns:ffdec="https://www.free-decompiler.com/flash" xmlns:xlink="http://www.w3.org/1999/xlink" ffdec:objectType="frame" height="21.05px" width="30.0px" xmlns="http://www.w3.org/2000/svg">
  <g transform="matrix(1.0, 0.0, 0.0, 1.0, 15.0, 10.5)">
    <use ffdec:characterId="188" height="21.05" transform="matrix(1.0, 0.0, 0.0, 1.0, -15.0, -10.5)" width="30.0" xlink:href="#shape0"/>
  </g>
  <defs>
    <g id="shape0" transform="matrix(1.0, 0.0, 0.0, 1.0, 15.0, 10.5)">
      <path d="M13.15 -10.0 L14.85 -4.6 14.8 -4.15 14.55 -3.8 12.0 -1.9 11.75 -1.55 11.75 -1.05 15.0 8.55 14.95 8.95 14.65 9.2 6.95 10.55 6.5 10.45 6.25 10.1 4.1 2.45 Q3.8 1.25 3.3 1.35 L0.1 1.75 Q-3.15 1.75 -4.7 -0.5 -5.7 -1.85 -5.85 -3.75 -5.85 -4.15 -7.0 -4.15 L-13.25 -4.2 -13.65 -4.3 -13.75 -4.7 -13.75 -6.2 -13.95 -6.55 -14.35 -6.75 -14.45 -6.75 -14.85 -6.85 -15.0 -7.25 -15.0 -9.95 -14.85 -10.35 -14.45 -10.5 12.45 -10.5 12.9 -10.35 13.15 -10.0 M2.7 -0.05 Q3.2 -0.2 3.1 -0.95 L2.4 -3.65 2.1 -4.0 1.65 -4.2 1.2 -4.2 Q1.5 -2.1 0.75 -0.95 L-0.1 -0.2 -0.9 -0.3 Q-0.7 -0.5 -0.6 -0.85 -0.25 -1.5 -0.3 -2.2 -0.35 -2.95 -1.35 -4.2 L-3.25 -4.2 Q-4.05 -4.2 -4.05 -3.65 -3.95 -1.55 -2.85 -0.45 -1.9 0.5 -0.45 0.5 1.35 0.5 2.7 -0.05" fill="#ffffff" fill-rule="evenodd" stroke="none"/>
    </g>
  </defs>
</svg>
